<svg width="398" height="69" viewBox="0 0 398 69" fill="none" xmlns="http://www.w3.org/2000/svg">
<path d="M41.712 49.28C41.712 60.416 38.544 68.96 19.248 68.96C14.256 68.96 6.672 68.48 0.24 67.424V2.144L14.064 0.223997V22.88C17.808 21.44 22.224 20.288 27.312 20.288C37.68 20.288 41.712 26.72 41.712 37.184V49.28ZM14.064 34.88V56.768C16.08 56.96 17.808 56.96 19.728 56.96C26.64 56.96 27.888 53.792 27.888 49.376V37.28C27.888 34.208 26.544 32.288 22.896 32.288C19.92 32.288 16.656 33.536 14.064 34.88ZM65.6265 68H51.8025V2.144L65.6265 0.223997V68ZM67.4505 44.48L79.3545 21.248H94.1385L81.8505 44.48L94.7145 68H79.9305L67.4505 44.48ZM107.036 36.224V53.024C107.036 61.376 110.396 63.968 119.132 63.968C121.916 63.968 125.18 63.68 129.116 63.008L129.788 67.616C126.524 68.48 122.3 68.96 119.132 68.96C105.98 68.96 101.468 62.912 101.468 52.832V36.416C101.468 26.336 105.98 20.288 119.132 20.288C122.3 20.288 126.524 20.768 129.788 21.632L129.116 26.24C125.18 25.568 121.916 25.28 119.132 25.28C110.396 25.28 107.036 27.872 107.036 36.224ZM162.465 20.288L163.137 25.76C158.241 27.872 152.865 31.424 148.353 34.4V68H142.785V21.248H147.777L148.065 28.352C153.057 25.088 158.049 21.92 162.465 20.288ZM176.141 52.16C176.141 60.512 179.021 64.064 188.333 64.064C193.133 64.064 198.509 63.104 203.117 61.856L204.077 66.368C199.757 67.904 193.613 68.96 187.949 68.96C174.797 68.96 170.573 62.144 170.573 51.968V37.28C170.573 27.68 174.893 20.288 188.045 20.288C201.197 20.288 205.037 27.68 205.037 37.28V46.304H176.141V52.16ZM176.141 37.088V41.312H199.565V37.088C199.565 29.216 196.781 25.088 188.045 25.088C179.309 25.088 176.141 29.216 176.141 37.088ZM249.36 33.824V68H244.56L244.176 64.352C239.664 67.136 234.48 68.96 228.336 68.96C220.08 68.96 216.24 64.256 216.24 55.904C216.24 46.016 220.752 42.944 229.968 42.944H243.792V33.824C243.792 27.392 240.432 25.28 232.752 25.28C228.144 25.28 223.248 25.952 218.928 26.816L218.064 22.112C221.808 21.056 227.664 20.288 232.464 20.288C244.56 20.288 249.36 25.088 249.36 33.824ZM243.792 59.168V47.936H230.16C223.728 47.936 221.808 49.856 221.808 56C221.808 61.472 222.96 63.968 229.488 63.968C234.096 63.968 239.568 62.144 243.792 59.168ZM287.794 62.816L288.85 67.136C286.162 68.192 282.418 68.96 279.058 68.96C271.666 68.96 268.498 66.272 268.498 58.88V26.048H259.474V21.248H268.498V10.208L274.066 9.44V21.248H288.37L287.794 26.048H274.066V58.304C274.066 62.432 274.642 64.16 279.442 64.16C282.034 64.16 285.01 63.68 287.794 62.816ZM305.947 68H300.379V21.248H305.947V68ZM305.947 12.416H300.379V2.144H305.947V12.416ZM355.727 21.248L339.887 68H331.343L315.503 21.248H321.167L335.567 64.064L350.063 21.248H355.727ZM368.516 52.16C368.516 60.512 371.396 64.064 380.708 64.064C385.508 64.064 390.884 63.104 395.492 61.856L396.452 66.368C392.132 67.904 385.988 68.96 380.324 68.96C367.172 68.96 362.948 62.144 362.948 51.968V37.28C362.948 27.68 367.268 20.288 380.42 20.288C393.572 20.288 397.412 27.68 397.412 37.28V46.304H368.516V52.16ZM368.516 37.088V41.312H391.94V37.088C391.94 29.216 389.156 25.088 380.42 25.088C371.684 25.088 368.516 29.216 368.516 37.088Z" fill="white"/>
</svg>
