<?xml version="1.0" encoding="UTF-8"?>
<svg id="Layer_2" data-name="Layer 2" xmlns="http://www.w3.org/2000/svg" xmlns:xlink="http://www.w3.org/1999/xlink" viewBox="0 0 562.5 400.38">
  <defs>
    <style>
      .cls-1 {
        fill: #fff424;
      }

      .cls-1, .cls-2, .cls-3, .cls-4, .cls-5 {
        stroke: #1d3751;
        stroke-miterlimit: 10;
      }

      .cls-2, .cls-6 {
        fill: none;
      }

      .cls-7 {
        opacity: .14;
      }

      .cls-7, .cls-8, .cls-9, .cls-10, .cls-11 {
        stroke-width: 0px;
      }

      .cls-12 {
        filter: url(#drop-shadow-1);
      }

      .cls-8, .cls-3 {
        fill: #f8c3af;
      }

      .cls-9 {
        fill: #fff;
      }

      .cls-10 {
        fill: #1d3751;
      }

      .cls-4 {
        fill: #2d7ec1;
      }

      .cls-6 {
        stroke: #333;
        stroke-linecap: round;
        stroke-linejoin: round;
      }

      .cls-5 {
        fill: #2fa56c;
      }

      .cls-11 {
        fill: #3a75af;
      }
    </style>
    <filter id="drop-shadow-1" filterUnits="userSpaceOnUse">
      <feOffset dx="5" dy="5"/>
      <feGaussianBlur result="blur" stdDeviation="15"/>
      <feFlood flood-color="#000" flood-opacity=".35"/>
      <feComposite in2="blur" operator="in"/>
      <feComposite in="SourceGraphic"/>
    </filter>
  </defs>
  <g id="OBJECTS">
    <g class="cls-12">
      <g>
        <path class="cls-6" d="M446.23,296.99l-264.24-64.09,46.14-181.19c1.26-4.96,6.22-8.02,11.22-6.94l248.06,53.58c4.87,1.05,7.89,5.93,6.66,10.76l-47.84,187.88Z"/>
        <path class="cls-6" d="M437.99,296.04l-264.24-64.09,46.14-181.19c1.26-4.96,6.22-8.02,11.22-6.94l248.06,53.58c4.87,1.05,7.89,5.93,6.66,10.76l-47.84,187.88Z"/>
        <g>
          <path class="cls-10" d="M444.51,304.21l-270.76-72.26,54.38-180.24c1.26-4.96,6.22-8.02,11.22-6.94l248.06,53.58c4.87,1.05,7.89,5.93,6.66,10.76l-49.56,195.1Z"/>
          <path class="cls-9" d="M437.99,296.04l-264.24-64.09,46.14-181.19c1.26-4.96,6.22-8.02,11.22-6.94l248.06,53.58c4.87,1.05,7.89,5.93,6.66,10.76l-47.84,187.88Z"/>
          <path class="cls-10" d="M298.68,313.71l-236.38-56.7c-9.51-2.81-6.87-15.27.02-15.68l109.29.59,272.91,62.29-129.75,10.74c-5.39.45-10.82.03-16.08-1.23Z"/>
          <path class="cls-11" d="M299.28,303.89l-31.38-7.53-67.03-16.08-82.26-19.73-58.41-14.01c-2.94-.7-2.61-4.98.4-5.23l111.53-9.23,263.07,63.1-119.98,9.93c-5.34.44-10.73.03-15.94-1.22Z"/>
          <path class="cls-10" d="M321.53,286.8c1.49-.1,1.67-2.23.22-2.58l-67.74-16.25-78.17-18.75c-.44-.11-.9-.14-1.35-.09l-35.54,3.88c-1.14.12-1.24,1.74-.13,2.01l76.56,18.36,61.99,14.87c3.34.8,6.78,1.09,10.21.86l33.95-2.32Z"/>
        </g>
        <g>
          <path class="cls-7" d="M216.48,360.34l-42.01-9.32c-4.05-.9-6.55-4.96-5.53-8.98l11.47-45.35c.97-3.85,4.83-6.23,8.7-5.38l40.97,9.01c3.99.88,6.5,4.84,5.59,8.82l-10.44,45.66c-.9,3.94-4.81,6.41-8.76,5.54Z"/>
          <path class="cls-10" d="M199.94,341.96l-42.01-9.32c-4.05-.9-6.55-4.96-5.53-8.98l11.47-45.35c.97-3.85,4.83-6.23,8.7-5.38l40.97,9.01c3.99.88,6.5,4.84,5.59,8.82l-10.44,45.66c-.9,3.94-4.81,6.41-8.76,5.54Z"/>
          <path class="cls-11" d="M196.26,340.12l-42.01-9.32c-4.05-.9-6.55-4.96-5.53-8.98l11.47-45.35c.97-3.85,4.83-6.23,8.7-5.38l40.97,9.01c3.99.88,6.5,4.84,5.59,8.82l-10.44,45.66c-.9,3.94-4.81,6.41-8.76,5.54Z"/>
          <polygon class="cls-8" points="165.96 319.97 174.65 285.59 199.62 290.99 191.71 325.6 181.86 310.91 165.96 319.97"/>
        </g>
        <g>
          <path class="cls-11" d="M310.66,193.89l-92.7-21.28c-3.58-.82-5.77-4.45-4.83-8.01l15.79-59.66c.9-3.41,4.35-5.48,7.78-4.67l90.59,21.32c3.48.82,5.65,4.3,4.85,7.79l-13.68,59.61c-.8,3.5-4.29,5.69-7.8,4.89Z"/>
          <path class="cls-2" d="M310.66,194.74l-92.7-21.28c-3.58-.82-5.77-4.45-4.83-8l15.79-59.66c.9-3.41,4.35-5.48,7.78-4.67l90.59,21.32c3.48.82,5.65,4.3,4.85,7.79l-13.68,59.61c-.8,3.5-4.29,5.69-7.8,4.89Z"/>
          <path class="cls-10" d="M213.9,163.45l34.06-32.66,15.49,39.25,23.46-12.28,29.48,35.16h0c-.31,1.52-1.8,2.48-3.32,2.13l-96.53-22.16c-3.49-.8-4.35-4.68-3.43-8.14l.78-1.29Z"/>
          <path class="cls-10" d="M295.93,138.02c.44,5.35-3.53,10.04-8.88,10.49-5.35.44-10.04-3.53-10.49-8.88s3.53-10.04,8.88-10.49c5.35-.44,10.04,3.53,10.49,8.88Z"/>
        </g>
        <g>
          <path class="cls-7" d="M346.07,110.32l-123.82-28.79c-3.56-.83-5.74-4.43-4.82-7.97l8.14-31.37c.89-3.43,4.35-5.51,7.8-4.7l123.52,29.29c3.54.84,5.7,4.41,4.8,7.93l-7.85,30.88c-.87,3.43-4.33,5.54-7.78,4.73Z"/>
          <path class="cls-11" d="M333.21,99.3l-123.82-28.79c-3.56-.83-5.74-4.43-4.82-7.97l8.14-31.37c.89-3.43,4.35-5.51,7.8-4.7l123.52,29.29c3.54.84,5.7,4.41,4.8,7.93l-7.85,30.88c-.87,3.43-4.33,5.54-7.78,4.73Z"/>
          <path class="cls-10" d="M245.14,78.82l-35.61-8.41c-3.62-.77-5.87-4.41-4.94-8l8.13-31.31c.88-3.41,4.31-5.49,7.74-4.71l35.82,8.55-11.15,43.87Z"/>
          <g>
            <g>
              <path class="cls-11" d="M237.92,67.2c-.53-.12-1.03-.43-1.36-.92l-10.71-15.65c-.7-1.02-.44-2.41.58-3.1,1.02-.69,2.41-.44,3.1.58l10.71,15.65c.7,1.02.44,2.41-.58,3.1-.53.36-1.16.47-1.74.34Z"/>
              <path class="cls-11" d="M225.12,50.73c-.68-1.29-.3-2.91.93-3.75,1.32-.91,3.14-.57,4.04.76l10.71,15.65c.9,1.34.56,3.14-.76,4.04-.66.45-1.49.61-2.27.44h0c-.72-.16-1.35-.59-1.77-1.2l-10.71-15.65c-.06-.09-.12-.19-.17-.29ZM239.78,64.3c-.03-.05-.06-.1-.09-.15l-10.71-15.65c-.48-.71-1.46-.89-2.16-.41-.71.49-.91,1.47-.41,2.16l10.71,15.65c.22.33.56.55.95.64.43.09.86.01,1.22-.24.66-.45.86-1.32.5-2.01Z"/>
            </g>
            <g>
              <path class="cls-11" d="M239.13,51.91c-1.4,6.32-7.66,10.31-13.98,8.91-6.32-1.4-10.31-7.66-8.91-13.98,1.4-6.32,7.66-10.31,13.98-8.91s10.31,7.66,8.91,13.98Z"/>
              <path class="cls-11" d="M216.71,55.14c-1.37-2.59-1.77-5.55-1.13-8.44.72-3.23,2.65-5.99,5.44-7.77,2.79-1.78,6.11-2.37,9.34-1.65,3.23.72,5.99,2.65,7.77,5.44,1.78,2.79,2.37,6.11,1.65,9.34-.72,3.23-2.65,5.99-5.44,7.77-2.79,1.78-6.11,2.36-9.34,1.65-3.23-.72-5.99-2.65-7.77-5.44-.19-.29-.36-.6-.52-.9ZM237.47,44.24c-.14-.27-.3-.54-.47-.8-1.59-2.49-4.04-4.21-6.93-4.85-2.88-.64-5.84-.12-8.32,1.47-2.49,1.59-4.21,4.04-4.85,6.92-.64,2.88-.12,5.84,1.47,8.32,1.59,2.49,4.04,4.21,6.92,4.85,2.88.64,5.84.12,8.32-1.47,2.49-1.59,4.21-4.04,4.85-6.93h0c.57-2.58.21-5.21-1-7.52Z"/>
            </g>
            <circle class="cls-9" cx="227.69" cy="49.37" r="7.26" transform="translate(8.66 128.77) rotate(-32.16)"/>
          </g>
          <path class="cls-9" d="M322.09,77.65c-.29,0-.57-.03-.86-.1l-57.96-13.95c-1.97-.47-3.19-2.46-2.71-4.43.48-1.97,2.47-3.19,4.43-2.71l57.96,13.95c1.97.47,3.19,2.46,2.71,4.43-.41,1.68-1.91,2.82-3.57,2.82Z"/>
        </g>
        <g>
          <path class="cls-7" d="M543.15,214.74l-135.65-32.36c-3.99-.95-6.42-4.98-5.42-8.95l11.46-45.31c.99-3.91,4.94-6.29,8.86-5.34l134.48,32.65c3.91.95,6.33,4.86,5.43,8.78l-10.29,45.02c-.91,3.98-4.9,6.46-8.87,5.51Z"/>
          <path class="cls-10" d="M497.21,198.2l-135.65-32.36c-3.99-.95-6.42-4.98-5.42-8.95l11.46-45.31c.99-3.91,4.94-6.29,8.86-5.34l134.48,32.65c3.91.95,6.33,4.86,5.43,8.78l-10.29,45.02c-.91,3.98-4.9,6.46-8.87,5.51Z"/>
          <path class="cls-11" d="M493.53,194.53l-135.65-32.36c-3.99-.95-6.42-4.98-5.42-8.95l11.46-45.31c.99-3.91,4.94-6.29,8.86-5.34l134.48,32.65c3.91.95,6.33,4.86,5.43,8.78l-10.29,45.02c-.91,3.98-4.9,6.46-8.87,5.51Z"/>
          <path class="cls-10" d="M494.73,144.21l-62,1.66-54.1-30.34c-1.32-.74-3.01-.27-3.75,1.06-.74,1.33-.27,3.01,1.06,3.75l46.04,25.82-52.77,1.41c-1.52.04-2.72,1.31-2.68,2.83.04,1.5,1.27,2.68,2.75,2.68.02,0,.05,0,.08,0l62-1.66,54.1,30.34c.43.24.89.35,1.35.35.96,0,1.9-.51,2.41-1.41.74-1.33.27-3.01-1.06-3.75l-46.04-25.82,52.77-1.41c1.52-.04,2.72-1.31,2.68-2.83-.04-1.52-1.36-2.78-2.83-2.68Z"/>
        </g>
        <g>
          <path class="cls-7" d="M183.2,156.77l-29.56-6.79c-4.03-.93-6.51-5-5.47-9l7.9-30.54c1-3.87,4.91-6.23,8.8-5.31l28.83,6.79c3.95.93,6.4,4.89,5.47,8.84l-7.18,30.54c-.93,3.94-4.86,6.39-8.8,5.48Z"/>
          <path class="cls-10" d="M175.85,138.39l-29.56-6.79c-4.03-.93-6.51-5-5.47-9l7.9-30.54c1-3.87,4.91-6.23,8.8-5.31l28.83,6.79c3.95.93,6.4,4.89,5.47,8.84l-7.18,30.54c-.93,3.94-4.86,6.39-8.8,5.48Z"/>
          <path class="cls-11" d="M170.34,132.88l-29.56-6.79c-4.03-.93-6.51-5-5.47-9l7.9-30.54c1-3.87,4.91-6.23,8.8-5.31l28.83,6.79c3.95.93,6.4,4.89,5.47,8.84l-7.18,30.54c-.93,3.94-4.86,6.39-8.8,5.48Z"/>
          <path class="cls-9" d="M178.74,105.6c-.82-9.95-9.56-17.36-19.52-16.53-9.95.82-17.36,9.56-16.53,19.52.82,9.95,9.56,17.36,19.52,16.53,9.95-.82,17.36-9.56,16.53-19.52Z"/>
          <path class="cls-10" d="M143.27,111.81c2.23,8.27,10.1,14.04,18.94,13.31,4.73-.39,8.87-2.58,11.84-5.83-1.98-3.75-5.27-6.93-9.44-8.9,2.54-1.22,4.19-3.91,3.94-6.88-.32-3.85-3.7-6.72-7.56-6.4-3.85.32-6.72,3.7-6.4,7.56.11,1.35.61,2.58,1.36,3.59-4.7-.19-9.15,1.13-12.69,3.56Z"/>
        </g>
        <g>
          <path class="cls-7" d="M141.83,185.41l-3.92-13.67-10.04,10.4-9.93-2.32c-3.84-.9-7.71,1.4-8.76,5.21l-4.64,16.87c-1.11,4.03,1.36,8.16,5.43,9.11l125.71,29.16c3.93.91,7.86-1.52,8.81-5.44l4.04-16.78c.95-3.96-1.5-7.95-5.47-8.88l-101.22-23.66Z"/>
          <path class="cls-11" d="M136.32,172.55l-3.92-13.67-10.04,10.4-9.93-2.32c-3.84-.9-7.71,1.4-8.76,5.21l-4.64,16.87c-1.11,4.03,1.36,8.16,5.43,9.11l125.71,29.16c3.93.91,7.86-1.52,8.81-5.44l4.04-16.78c.95-3.97-1.5-7.95-5.47-8.88l-101.22-23.66Z"/>
          <g>
            <path class="cls-9" d="M209.31,205.38c-.14,0-.29-.02-.43-.05l-57.97-13.95c-.99-.24-1.59-1.23-1.36-2.22.24-.99,1.22-1.59,2.22-1.36l57.97,13.95c.99.24,1.59,1.23,1.36,2.22-.2.84-.96,1.41-1.79,1.41Z"/>
            <path class="cls-9" d="M189.4,208.59c-.14,0-.29-.02-.43-.05l-40.12-9.65c-.99-.24-1.59-1.23-1.36-2.22.24-.99,1.23-1.58,2.22-1.36l40.12,9.65c.99.24,1.59,1.23,1.36,2.22-.2.84-.96,1.41-1.79,1.41Z"/>
          </g>
          <path class="cls-8" d="M123.3,185.14c.27.72.31,1.52.13,2.39-.26,1.25-.87,2.17-1.81,2.77-.94.6-2.02.77-3.24.52s-2.14-.86-2.77-1.81c-.63-.95-.82-2.03-.56-3.25.12-.58.32-1.14.58-1.69.27-.55.77-1.35,1.51-2.4l3.84-5.72,4.3.91-3.37,6.5c.66.47,1.12,1.07,1.39,1.79ZM133.55,187.3c.27.72.31,1.52.13,2.39-.26,1.25-.87,2.17-1.81,2.77-.94.6-2.02.77-3.24.52s-2.14-.86-2.77-1.81c-.63-.95-.82-2.03-.56-3.25.12-.58.32-1.14.58-1.69.27-.55.77-1.35,1.51-2.4l3.84-5.72,4.3.91-3.37,6.5c.66.47,1.12,1.07,1.39,1.79Z"/>
        </g>
        <g>
          <path class="cls-7" d="M466.42,270.49l-104.43-25.09c-4-.96-6.43-5.01-5.4-8.99l7.91-30.57c1.01-3.89,4.95-6.25,8.85-5.3l103.69,25.14c3.93.95,6.35,4.89,5.42,8.82l-7.17,30.51c-.93,3.97-4.91,6.42-8.87,5.46Z"/>
          <path class="cls-10" d="M459.07,259.47l-104.43-25.09c-4-.96-6.43-5.01-5.4-8.99l7.91-30.57c1.01-3.89,4.95-6.25,8.85-5.3l103.7,25.14c3.93.95,6.35,4.89,5.42,8.82l-7.17,30.51c-.93,3.97-4.91,6.42-8.87,5.46Z"/>
          <g>
            <polygon class="cls-8" points="415.17 209.02 416.19 220.53 427.45 223.11 416.82 227.64 417.84 239.14 410.25 230.44 399.63 234.96 405.56 225.05 397.97 216.35 409.23 218.93 415.17 209.02"/>
            <polygon class="cls-8" points="379.57 200.54 380.59 212.05 391.85 214.63 381.22 219.16 382.24 230.67 374.65 221.96 364.03 226.48 369.96 216.58 362.37 207.87 373.63 210.45 379.57 200.54"/>
            <polygon class="cls-8" points="451.2 217.23 452.22 228.74 463.48 231.32 452.85 235.85 453.87 247.35 446.28 238.65 435.66 243.17 441.59 233.27 434 224.56 445.26 227.14 451.2 217.23"/>
          </g>
        </g>
        <g>
          <path class="cls-7" d="M352.43,362.88l-91.83-20.5c-4-.89-6.5-4.89-5.55-8.88l18.88-79.02c.93-3.9,4.82-6.34,8.74-5.47l90.5,20.09c3.96.88,6.46,4.8,5.58,8.76l-17.55,79.42c-.88,3.97-4.81,6.47-8.78,5.59Z"/>
          <path class="cls-11" d="M334.05,342.67l-91.83-20.5c-4-.89-6.5-4.89-5.55-8.88l18.88-79.02c.93-3.9,4.82-6.34,8.74-5.47l90.5,20.09c3.96.88,6.46,4.8,5.58,8.76l-17.55,79.42c-.88,3.97-4.81,6.47-8.78,5.59Z"/>
          <path class="cls-5" d="M298.49,285.82l-32.01-2.53c1.4-17.68,16.87-30.88,34.55-29.48,1.59.13,3.43.42,4.98.79l-7.51,31.22Z"/>
          <path class="cls-4" d="M298.49,285.82l31.47-6.39c3.53,17.38-7.7,34.33-25.08,37.86-17.38,3.53-34.33-7.7-37.86-25.08-.64-3.15-.8-5.72-.54-8.92l32.01,2.53Z"/>
          <path class="cls-1" d="M298.49,285.82l7.51-31.22c12.54,3.02,21.4,12.2,23.96,24.84l-31.47,6.39Z"/>
        </g>
        <g>
          <path class="cls-10" d="M429.84,324.21l-29.56-6.79c-3.98-.91-6.45-4.9-5.51-8.87l7.42-31.15c.94-3.94,4.89-6.38,8.83-5.45l28.83,6.79c3.9.92,6.34,4.79,5.5,8.7l-6.7,31.15c-.86,4.01-4.83,6.54-8.83,5.62Z"/>
          <path class="cls-11" d="M426.17,320.54l-29.56-6.79c-3.98-.91-6.45-4.9-5.51-8.87l7.42-31.15c.94-3.94,4.89-6.38,8.83-5.45l28.83,6.79c3.9.92,6.34,4.79,5.5,8.7l-6.7,31.15c-.86,4.01-4.83,6.54-8.83,5.62Z"/>
          <polygon class="cls-10" points="432.82 290.1 426.46 280.65 418.74 285.86 413.94 277.88 404.18 283.74 409.28 292.23 401.07 297.76 407.43 307.2 415.15 302 419.95 309.98 429.71 304.11 424.61 295.63 432.82 290.1"/>
        </g>
        <g>
          <polygon class="cls-3" points="18.58 213.32 30.25 212.69 19.82 207.53 19.94 191.09 13.54 206.24 1.93 206.86 12.4 212.05 12.55 226.95 18.58 213.32"/>
          <polygon class="cls-3" points="39.14 24.74 50.82 24.11 40.39 18.95 40.5 2.51 34.11 17.66 22.5 18.28 32.97 23.47 33.12 38.37 39.14 24.74"/>
          <polygon class="cls-3" points="96.4 322.24 108.07 321.61 97.65 316.45 97.76 300.01 91.37 315.16 79.76 315.78 90.23 320.97 90.38 335.87 96.4 322.24"/>
          <polygon class="cls-3" points="400.46 384.43 412.13 383.8 401.71 378.65 401.82 362.2 395.43 377.35 383.82 377.98 394.29 383.16 394.44 398.07 400.46 384.43"/>
        </g>
        <g>
          <path class="cls-7" d="M181.1,40.64l-3.28,15.22c-.86,4.01-4.84,6.53-8.83,5.62l-70.59-16.2c-4.01-.92-6.49-4.96-5.49-8.95l3.7-14.76c.97-3.87,4.85-6.26,8.74-5.39l70.17,15.74c3.94.88,6.43,4.77,5.58,8.72Z"/>
          <path class="cls-11" d="M170.07,27.77l-3.28,15.22c-.86,4.01-4.83,6.53-8.83,5.62l-70.59-16.2c-4.01-.92-6.49-4.96-5.49-8.95l3.7-14.76c.97-3.87,4.85-6.26,8.74-5.39l70.17,15.74c3.94.88,6.43,4.77,5.58,8.72Z"/>
          <g>
            <path class="cls-9" d="M123.68,24.1c-.16-2.18-2.06-3.81-4.24-3.65-2.18.16-3.81,2.06-3.65,4.24s2.06,3.81,4.24,3.65c2.18-.16,3.81-2.06,3.65-4.24Z"/>
            <path class="cls-9" d="M138.86,27.16c-.16-2.18-2.06-3.81-4.24-3.65s-3.81,2.06-3.65,4.24c.16,2.18,2.06,3.81,4.24,3.65s3.81-2.06,3.65-4.24Z"/>
            <path class="cls-9" d="M153.65,30.8c-.16-2.18-2.06-3.81-4.24-3.65-2.18.16-3.81,2.06-3.65,4.24.16,2.18,2.06,3.81,4.24,3.65s3.81-2.06,3.65-4.24Z"/>
            <path class="cls-9" d="M108.62,21.27c-.16-2.18-2.06-3.81-4.24-3.65s-3.81,2.06-3.65,4.24c.16,2.18,2.06,3.81,4.24,3.65,2.18-.16,3.81-2.06,3.65-4.24Z"/>
          </g>
        </g>
        <g>
          <path class="cls-7" d="M24.47,122.37l7.58-32.57c.92-3.96,4.88-6.42,8.83-5.49l86.03,20.1c3.94.92,6.4,4.86,5.49,8.81l-7.59,32.94c-.92,3.98-4.89,6.44-8.86,5.5l-86.02-20.47c-3.93-.94-6.37-4.88-5.46-8.82Z"/>
          <path class="cls-11" d="M17.12,113.18l7.58-32.57c.92-3.96,4.88-6.42,8.83-5.49l86.03,20.1c3.94.92,6.4,4.86,5.49,8.81l-7.59,32.94c-.92,3.98-4.89,6.44-8.86,5.5l-86.02-20.47c-3.94-.94-6.37-4.88-5.46-8.82Z"/>
          <path class="cls-8" d="M82.9,128.03c-.93,0-1.84-.48-2.35-1.32l-14.88-24.32-23.94,14.41c-.71.43-1.57.51-2.35.23-.78-.28-1.39-.89-1.67-1.67l-3.66-10.24c-.51-1.43.24-3.01,1.67-3.52,1.43-.51,3.01.23,3.52,1.67l2.52,7.06,23.4-14.09c1.3-.78,2.98-.37,3.77.92l15.04,24.59,18.57-8.28c1.39-.62,3.02,0,3.64,1.4.62,1.39,0,3.02-1.4,3.64l-20.78,9.27c-.36.16-.74.24-1.12.24Z"/>
        </g>
      </g>
    </g>
  </g>
</svg>